<?xml version="1.0" standalone="no"?>
<!DOCTYPE svg PUBLIC "-//W3C//DTD SVG 20010904//EN"
 "http://www.w3.org/TR/2001/REC-SVG-20010904/DTD/svg10.dtd">
<svg version="1.0" xmlns="http://www.w3.org/2000/svg"
 width="16.000000pt" height="16.000000pt" viewBox="0 0 16.000000 16.000000"
 preserveAspectRatio="xMidYMid meet">
<metadata>
Created by potrace 1.11, written by Peter Selinger 2001-2013
</metadata>
<g transform="translate(0.000000,16.000000) scale(0.002520,-0.002520)"
fill="#000000" stroke="none">
<path d="M2949 5966 c-2 -2 -40 -6 -84 -10 -44 -3 -91 -8 -105 -10 -14 -2 -59
-10 -100 -16 -41 -7 -120 -23 -175 -37 -55 -13 -107 -26 -115 -28 -109 -25
-347 -118 -512 -200 -152 -77 -424 -251 -486 -312 -7 -6 -34 -29 -60 -50 -81
-65 -295 -284 -374 -383 -76 -96 -191 -259 -222 -315 -9 -16 -26 -46 -38 -65
-66 -111 -166 -333 -220 -490 -35 -103 -94 -336 -103 -405 -3 -27 -10 -68 -15
-90 -17 -82 -25 -206 -25 -410 1 -294 16 -425 80 -685 249 -1001 1040 -1798
2039 -2051 136 -35 298 -64 419 -76 159 -16 552 -8 659 12 11 3 39 6 62 9 238
29 583 142 850 279 311 159 604 388 846 662 205 230 400 559 514 866 33 91 81
246 90 293 2 11 11 48 19 81 15 59 21 92 32 170 4 22 8 51 11 65 26 153 26
592 -1 750 -2 14 -7 43 -10 65 -6 44 -9 59 -26 145 -82 408 -292 849 -566
1190 -85 106 -303 326 -403 406 -109 88 -284 214 -296 214 -2 0 -28 16 -59 35
-75 49 -254 137 -383 189 -95 39 -311 111 -361 121 -10 2 -61 12 -112 24 -52
11 -114 22 -139 26 -68 8 -123 17 -145 22 -26 6 -480 14 -486 9z m421 -307
c82 -8 173 -22 295 -44 172 -33 415 -119 608 -216 85 -43 261 -146 292 -171 6
-5 42 -31 80 -60 143 -105 300 -254 445 -424 137 -160 306 -448 393 -669 69
-177 128 -394 143 -520 3 -27 7 -57 10 -65 18 -54 26 -465 11 -605 -6 -65 -30
-213 -41 -260 -27 -119 -39 -165 -66 -250 -18 -55 -38 -113 -45 -130 -49 -120
-106 -242 -143 -310 -44 -79 -168 -275 -181 -285 -4 -3 -18 -21 -31 -40 -38
-54 -166 -198 -241 -270 -107 -103 -131 -124 -241 -207 -368 -280 -794 -449
-1263 -500 -92 -10 -441 -10 -530 0 -533 61 -1039 288 -1419 637 -252 231
-431 468 -576 762 -120 242 -212 539 -235 763 -4 33 -9 71 -12 85 -3 14 -7
115 -8 225 -5 281 25 512 95 741 17 54 32 106 35 114 14 52 28 87 71 185 203
462 530 848 949 1120 61 39 126 80 145 89 225 114 329 159 473 202 169 51 360
89 501 100 45 4 82 8 84 9 8 7 317 2 402 -6z"/>
<path d="M4562 4491 c-161 -41 -233 -226 -140 -362 130 -191 429 -98 428 133
-1 148 -147 264 -288 229z"/>
<path d="M1499 4445 c-7 0 -2 -2508 5 -2512 12 -8 355 -7 362 0 3 3 7 257 8
564 l1 558 653 3 652 2 0 -565 0 -565 23 -1 c110 -4 339 -1 345 5 4 4 7 571 7
1259 l0 1252 -185 0 -185 0 -5 -555 -5 -555 -640 -1 c-352 0 -645 2 -652 4 -9
3 -12 136 -12 530 0 290 0 538 0 552 l-1 25 -185 0 c-102 0 -186 0 -186 0z"/>
<path d="M4469 3710 l-24 -5 0 -885 0 -885 172 -3 171 -2 0 890 c0 819 -1 890
-17 891 -80 3 -282 3 -302 -1z"/>
</g>
</svg>
